<svg width="42" height="42" viewBox="0 0 42 42" fill="none" xmlns="http://www.w3.org/2000/svg">
<circle cx="21" cy="21" r="21" fill="#313342"/>
<path d="M26.4058 11.0042L23.8123 11C20.8985 11 19.0155 12.9319 19.0155 15.922V18.1914H16.4078C16.1825 18.1914 16 18.3741 16 18.5994V21.8875C16 22.1128 16.1827 22.2953 16.4078 22.2953H19.0155V30.5922C19.0155 30.8175 19.198 31 19.4233 31H22.8256C23.051 31 23.2334 30.8173 23.2334 30.5922V22.2953H26.2825C26.5078 22.2953 26.6903 22.1128 26.6903 21.8875L26.6915 18.5994C26.6915 18.4912 26.6484 18.3876 26.5721 18.311C26.4957 18.2345 26.3917 18.1914 26.2835 18.1914H23.2334V16.2676C23.2334 15.343 23.4538 14.8736 24.6583 14.8736L26.4054 14.873C26.6305 14.873 26.813 14.6903 26.813 14.4651V11.412C26.813 11.1871 26.6308 11.0046 26.4058 11.0042Z" fill="white"/>
</svg>
