<svg width="42" height="42" viewBox="0 0 42 42" fill="none" xmlns="http://www.w3.org/2000/svg">
<circle cx="21" cy="21" r="21" fill="#313342"/>
<path d="M25.6796 11H16.595C13.5099 11 11 13.51 11 16.5951V25.6797C11 28.7649 13.5099 31.2748 16.595 31.2748H25.6796C28.7649 31.2748 31.2748 28.7648 31.2748 25.6797V16.5951C31.275 13.51 28.7649 11 25.6796 11ZM29.4761 25.6797C29.4761 27.773 27.773 29.476 25.6797 29.476H16.595C14.5018 29.4761 12.7989 27.773 12.7989 25.6797V16.5951C12.7989 14.5019 14.5018 12.7989 16.595 12.7989H25.6796C27.7729 12.7989 29.476 14.5019 29.476 16.5951V25.6797H29.4761Z" fill="white"/>
<path d="M21.1375 15.9131C18.2567 15.9131 15.9131 18.2567 15.9131 21.1374C15.9131 24.018 18.2567 26.3615 21.1375 26.3615C24.0182 26.3615 26.3618 24.018 26.3618 21.1374C26.3618 18.2567 24.0182 15.9131 21.1375 15.9131ZM21.1375 24.5625C19.2488 24.5625 17.712 23.026 17.712 21.1373C17.712 19.2485 19.2486 17.7118 21.1375 17.7118C23.0263 17.7118 24.5629 19.2485 24.5629 21.1373C24.5629 23.026 23.0262 24.5625 21.1375 24.5625Z" fill="white"/>
<path d="M26.5808 14.3882C26.2343 14.3882 25.8938 14.5285 25.649 14.7743C25.403 15.019 25.2617 15.3596 25.2617 15.7074C25.2617 16.0541 25.4032 16.3945 25.649 16.6404C25.8937 16.885 26.2343 17.0266 26.5808 17.0266C26.9286 17.0266 27.268 16.885 27.5139 16.6404C27.7597 16.3945 27.9 16.054 27.9 15.7074C27.9 15.3596 27.7597 15.019 27.5139 14.7743C27.2692 14.5285 26.9286 14.3882 26.5808 14.3882Z" fill="white"/>
</svg>
