<svg width="42" height="42" viewBox="0 0 42 42" fill="none" xmlns="http://www.w3.org/2000/svg">
<circle cx="21" cy="21" r="21" fill="white"/>
<path d="M16.6086 15.6467H12.6206C12.2778 15.6467 12 15.9247 12 16.2673V29.5612C12 29.904 12.2778 30.1818 12.6206 30.1818H16.6086C16.9514 30.1818 17.2292 29.904 17.2292 29.5612V16.2673C17.2292 15.9247 16.9514 15.6467 16.6086 15.6467ZM15.9881 28.9406H13.2411V16.8879H15.9881V28.9406Z" fill="white"/>
<path d="M14.6148 9C13.1729 9 12 10.1729 12 11.6144C12 13.0563 13.1729 14.229 14.6148 14.229C16.0564 14.229 17.2292 13.0561 17.2292 11.6144C17.2292 10.1729 16.0564 9 14.6148 9ZM14.6148 12.9879C13.8573 12.9879 13.2411 12.3719 13.2411 11.6144C13.2411 10.8572 13.8573 10.2411 14.6148 10.2411C15.372 10.2411 15.9881 10.8572 15.9881 11.6144C15.9881 12.3719 15.372 12.9879 14.6148 12.9879Z" fill="white"/>
<path d="M26.5794 15.5591C25.6361 15.5591 24.7064 15.7865 23.8738 16.2118C23.8455 15.8952 23.5797 15.6468 23.2557 15.6468H19.2673C18.9247 15.6468 18.6467 15.9248 18.6467 16.2674V29.5613C18.6467 29.9041 18.9247 30.1819 19.2673 30.1819H23.2557C23.5985 30.1819 23.8763 29.9041 23.8763 29.5613V22.2497C23.8763 21.3091 24.6416 20.5439 25.5822 20.5439C26.5227 20.5439 27.2877 21.3091 27.2877 22.2497V29.5613C27.2877 29.9041 27.5657 30.1819 27.9083 30.1819H31.8965C32.2393 30.1819 32.5171 29.9041 32.5171 29.5613V21.4968C32.5171 18.2226 29.8535 15.5591 26.5794 15.5591ZM31.276 28.9407H28.529V22.2497C28.529 20.6247 27.2071 19.3028 25.5823 19.3028C23.9572 19.3028 22.6351 20.6247 22.6351 22.2497V28.9407H19.888V16.888H22.6351V17.3464C22.6351 17.5851 22.772 17.8026 22.9873 17.9059C23.2024 18.0092 23.4577 17.9798 23.644 17.8306C24.4844 17.1565 25.4996 16.8002 26.5794 16.8002C29.1691 16.8002 31.276 18.907 31.276 21.4968V28.9407Z" fill="white"/>
<path d="M21 0C9.40379 0 0 9.40379 0 21C0 32.5962 9.40379 42 21 42C32.5962 42 42 32.5962 42 21C42 9.40379 32.5962 0 21 0ZM14.8976 31.7461H9.78319V16.3591H14.8976V31.7461ZM12.3406 14.2581H12.3073C10.591 14.2581 9.48102 13.0766 9.48102 11.6001C9.48102 10.0902 10.625 8.94141 12.3745 8.94141C14.1241 8.94141 15.2008 10.0902 15.2341 11.6001C15.2341 13.0766 14.1241 14.2581 12.3406 14.2581ZM33.3393 31.7461H28.2255V23.5145C28.2255 21.4457 27.485 20.0349 25.6344 20.0349C24.2216 20.0349 23.3802 20.9865 23.0104 21.9052C22.8752 22.234 22.8422 22.6935 22.8422 23.1533V31.7461H17.728C17.728 31.7461 17.795 17.8027 17.728 16.3591H22.8422V18.5378C23.5218 17.4893 24.7379 15.998 27.4513 15.998C30.8162 15.998 33.3393 18.1972 33.3393 22.9232V31.7461Z" fill="#313342"/>
</svg>
