<svg width="42" height="42" viewBox="0 0 42 42" fill="none" xmlns="http://www.w3.org/2000/svg">
<circle cx="21" cy="21" r="21" fill="#313342"/>
<path d="M33 14.5375C31.4903 14.6048 31.5233 14.5993 31.3526 14.6131L32.2467 12.1433C32.2467 12.1433 29.4558 13.1363 28.7483 13.314C26.8901 11.6985 24.1282 11.6272 22.1536 12.8011C20.5366 13.7626 19.6686 15.4138 19.9581 17.3438C16.8111 16.9214 14.1595 15.4785 12.0661 13.046L11.404 12.2768L10.9092 13.1556C10.2839 14.2661 10.0763 15.5358 10.3244 16.7308C10.4262 17.2211 10.5992 17.6886 10.8389 18.1264L10.2709 17.9136L10.2036 18.8315C10.1353 19.764 10.4562 20.8525 11.0623 21.7431C11.233 21.9939 11.4527 22.2693 11.7312 22.541L11.4377 22.4974L11.7958 23.5492C12.2666 24.9313 13.2444 26.0005 14.5133 26.5949C13.246 27.115 12.2223 27.4469 10.5396 27.9824L9 28.4719L10.422 29.2239C10.9642 29.5106 12.88 30.4683 14.7729 30.7556C18.9807 31.3939 23.7182 30.8741 26.9075 28.0957C29.5939 25.7555 30.4753 22.4267 30.2922 18.9626C30.2646 18.4382 30.4131 17.9376 30.7104 17.5535C31.3061 16.7843 32.9963 14.5426 33 14.5375ZM29.586 16.7388C29.0922 17.3766 28.8448 18.1911 28.8891 19.032C29.0739 22.5263 28.0909 25.2361 25.9675 27.0858C23.4869 29.2467 19.4859 30.0949 14.9907 29.4129C14.1766 29.2894 13.3352 29.013 12.6389 28.7368C14.0497 28.2673 15.1392 27.8488 16.8986 27.0433L19.3548 25.9188L16.643 25.7509C15.3441 25.6705 14.2625 25.0616 13.5976 24.073C13.9506 24.0531 14.291 23.9979 14.6299 23.9065L17.2163 23.2097L14.6083 22.592C13.3411 22.2918 12.6187 21.5583 12.2358 20.9958C11.9844 20.6262 11.8202 20.2475 11.7217 19.8984C11.9832 19.9663 12.288 20.0146 12.7797 20.0617L15.1935 20.2927L13.281 18.8496C11.903 17.81 11.3507 16.248 11.7556 14.7465C16.0563 19.0612 21.106 18.737 21.6143 18.851C21.5024 17.7999 21.4995 17.7974 21.4702 17.6973C20.8193 15.4715 22.2458 14.3414 22.8893 13.9588C24.2333 13.1599 26.3666 13.0395 27.8443 14.3557C28.1635 14.6398 28.595 14.7516 28.999 14.6545C29.3615 14.5674 29.6591 14.4751 29.9504 14.3747L29.3439 16.0498L30.1181 16.0503C29.972 16.2399 29.7968 16.4667 29.586 16.7388Z" fill="white"/>
</svg>
