<svg width="42" height="42" viewBox="0 0 42 42" fill="none" xmlns="http://www.w3.org/2000/svg">
<path d="M18.3843 24.9343L25.2154 21L18.3843 17.0657V24.9343Z" fill="#313342"/>
<path d="M21 0C9.40379 0 0 9.40379 0 21C0 32.5962 9.40379 42 21 42C32.5962 42 42 32.5962 42 21C42 9.40379 32.5962 0 21 0ZM34.1218 21.0215C34.1218 21.0215 34.1218 25.2804 33.5815 27.334C33.2787 28.4581 32.3924 29.3444 31.2683 29.6469C29.2147 30.1875 21 30.1875 21 30.1875C21 30.1875 12.8068 30.1875 10.7317 29.6255C9.60759 29.323 8.72127 28.4363 8.41846 27.3122C7.87788 25.2804 7.87788 21 7.87788 21C7.87788 21 7.87788 16.7414 8.41846 14.6878C8.72095 13.5637 9.62906 12.6556 10.7317 12.3531C12.7853 11.8125 21 11.8125 21 11.8125C21 11.8125 29.2147 11.8125 31.2683 12.3745C32.3924 12.677 33.2787 13.5637 33.5815 14.6878C34.1436 16.7414 34.1218 21.0215 34.1218 21.0215Z" fill="#313342"/>
</svg>
